<svg width="37" height="28" viewBox="0 0 37 28" fill="none" xmlns="http://www.w3.org/2000/svg">
<path d="M9.2501 4.37511H2.3126C1.03433 4.37511 0 5.15952 0 6.12507V25.3753C0 26.3424 1.03433 27.1251 2.3126 27.1251H9.25017C10.5284 27.1251 11.5625 26.3424 11.5625 25.3753V6.12507C11.5625 5.15952 10.5283 4.37511 9.2501 4.37511ZM3.46886 21.8751C2.82969 21.8751 2.3126 21.4838 2.3126 20.9998C2.3126 20.5164 2.82969 20.1251 3.46886 20.1251C4.10788 20.1251 4.62497 20.5164 4.62497 20.9998C4.62497 21.4838 4.10788 21.8751 3.46886 21.8751ZM9.2501 11.3751H2.3126V9.62516H9.25017V11.3751H9.2501ZM9.2501 7.87509H2.3126V6.12507H9.25017V7.87509H9.2501Z" fill="white"/>
<path d="M24.2815 23.6249V21.8752H17.3438V23.6249C16.0658 23.6249 15.0312 24.4078 15.0312 25.3752H26.5937C26.5937 24.4078 25.5595 23.6249 24.2815 23.6249Z" fill="white"/>
<path d="M34.6878 0.875008H6.93757C5.65938 0.875008 4.62497 1.65942 4.62497 2.62508H6.93757H13.8751H34.6879V16.625H13.8751V20.1251H34.6878C35.9657 20.1251 37 19.3424 37 18.3747V2.62502C37 1.65936 35.9657 0.875008 34.6878 0.875008ZM20.8126 19.2501C20.1735 19.2501 19.6564 18.859 19.6564 18.3747C19.6564 17.8913 20.1735 17.5 20.8126 17.5C21.4519 17.5 21.969 17.8913 21.969 18.3747C21.969 18.859 21.4518 19.2501 20.8126 19.2501Z" fill="white"/>
</svg>
