<svg width="29" height="29" viewBox="0 0 29 29" fill="none" xmlns="http://www.w3.org/2000/svg">
<path d="M5.55755 0.564631C2.9345 1.68287 1.00281 3.28251 0.433544 4.78732C0.304784 5.12633 0.284484 5.31599 0.291154 6.12944C0.297824 7.89177 0.724994 9.84376 1.58571 12.0263C2.75818 14.9947 4.48658 17.672 6.98783 20.3969C11.4477 25.2497 17.4394 28.449 22.5837 28.7065C23.5463 28.7608 23.9934 28.6726 24.746 28.2796C25.9999 27.6289 27.5454 25.5618 28.4739 23.2977C28.7451 22.647 28.7654 22.5115 28.623 22.2404C28.5076 22.0165 22.2517 17.5702 21.8654 17.4348C21.5876 17.3466 21.2758 17.3739 20.9774 17.523C20.8756 17.5772 20.32 18.2007 19.7371 18.9057C18.551 20.3493 18.3883 20.4781 17.7309 20.485C17.3716 20.485 17.2701 20.4511 16.4363 19.9903C12.6811 17.9365 11.0478 16.3029 8.99405 12.548C8.53325 11.7076 8.49932 11.6125 8.49932 11.2465C8.50599 10.5957 8.65533 10.4061 10.0787 9.24027C10.77 8.67767 11.3868 8.11507 11.4614 7.99994C11.6038 7.74909 11.6241 7.21375 11.502 6.96957C11.4544 6.88141 10.404 5.37689 9.17037 3.63486C7.72675 1.58108 6.86574 0.422241 6.74394 0.361052C6.46583 0.21895 6.30981 0.245922 5.55755 0.564631Z" fill="white"/>
</svg>
