<?xml version="1.0" encoding="UTF-8"?>
<!DOCTYPE svg PUBLIC "-//W3C//DTD SVG 1.1//EN" "http://www.w3.org/Graphics/SVG/1.1/DTD/svg11.dtd">
<!-- Creator: CorelDRAW 2018 (64-Bit) -->
<svg xmlns="http://www.w3.org/2000/svg" xml:space="preserve" width="43.3492mm" height="32.2338mm" version="1.1" style="shape-rendering:geometricPrecision; text-rendering:geometricPrecision; image-rendering:optimizeQuality; fill-rule:evenodd; clip-rule:evenodd"
viewBox="0 0 150.17 111.66"
 xmlns:xlink="http://www.w3.org/1999/xlink">
 <defs>
  <style type="text/css">
   <![CDATA[
    .fil0 {fill:black}
   ]]>
  </style>
 </defs>
 <g id="Слой_x0020_1">
  <metadata id="CorelCorpID_0Corel-Layer"/>
  <g id="_869230048">
   <g>
    <path class="fil0" d="M122.6 89.16l0 -5.87c1.66,0.14 2.35,-0.01 2.35,1.76l0 2.35c0,1.8 -0.69,1.59 -2.35,1.76zm-2.35 -12.9c0,-3.82 0.29,-4.11 4.11,-4.11 2.55,0 3.83,3.57 1.64,5.75 -2.19,2.19 -5.75,0.9 -5.75,-1.64zm-19.36 -66.87c0,2.59 0.4,2.35 3.52,2.35 2.65,0 0.84,-2.93 5.28,-2.93 4.52,0 27.97,-0.94 30.34,0.83 0.98,0.73 0.33,0.03 0.73,0.89 2.15,4.63 -8.13,3.56 -11.13,3.56 -4.69,-0 -9.39,0 -14.08,0 0.82,1.55 1.12,1.71 1.17,4.11l21.7 0c2.69,0 3.51,4.69 0.59,4.69l-21.7 0 0 4.69c6.21,0 18.01,-0.69 23.46,0.59 0,5.9 0.85,4.11 -23.46,4.11l0 52.79c0,15.79 -16.42,5.65 -16.42,11.14 0,3.49 -0.27,4.63 1.17,7.63 5.83,1.36 31.98,0.59 39.89,0.59 2.74,0 4.11,-1.37 4.11,-4.11l0 -93.27c0,-1.37 -1.57,-2.93 -2.93,-2.93l-38.13 0c-3.29,0 -4.11,2.03 -4.11,5.28z"/>
    <path class="fil0" d="M55.14 87.99c0.3,-1.13 0.15,-1.67 1.44,-2.09 1.15,-0.37 1.9,0.25 2.05,1.56 0.21,1.87 -1.46,3.56 -3.49,0.53zm-47.51 -65.7l99.13 0 0 61.59 -99.13 0 0 -61.59zm-7.63 -4.11l0 68.63c0,2.84 1.86,4.69 4.69,4.69l104.41 0c2.14,0 4.69,-1.62 4.69,-3.52l0 -69.8c0,-1.41 -2.11,-3.52 -3.52,-3.52l-106.76 0c-1.41,0 -3.52,2.11 -3.52,3.52z"/>
    <path class="fil0" d="M75.67 52.21c0,22.55 -29.51,25.29 -36.31,8.15 -3.65,-9.21 -0.5,-19.49 7.94,-24.19 13.27,-7.38 28.36,2.56 28.36,16.04zm-27.57 -21.7c-2.36,-3.53 -3.03,-5.46 -6.52,-3 -3.59,2.54 -0.7,3.23 0.06,6.52l-3.38 3.65c-3.59,-0.99 -3.83,-3.58 -6.4,-0.54 -3.02,3.57 -0.22,4.87 2.75,6.85 -0.92,1.91 -0.19,4.08 -2.07,4.97 -3.26,1.55 -4.97,-2.03 -4.97,5 0,2.62 3.2,2.35 5.87,2.35 0.15,1.85 1.21,3.78 0.71,4.95 -0.69,1.64 -3.64,1.69 -3.64,3.26 0,2.77 1.13,2.34 1.76,4.69 5.09,0 5.74,-3.68 9.38,1.76 -0.6,2.57 -1.52,2.45 -1.76,5.28 2.73,2.88 6.28,3.86 7.63,-1.17 3.06,0 3.5,0.62 5.87,1.17 0,5.89 -0.18,5.87 4.69,5.87 4.17,0 0.12,-5.09 4.02,-6.54 5.36,-1.99 3.7,3.02 7.12,3.02 6.78,0 2.93,-6.31 2.93,-7.04 0,-1.27 2.36,-3.52 2.93,-3.52 1.61,0 7.63,3.8 7.63,-2.93 0,-3.42 -5.01,-1.76 -3.02,-7.12 1.79,-4.83 6.54,2.27 6.54,-6.37 0,-2.87 -3.02,-2.35 -5.87,-2.35 -0.55,-2.36 -1.17,-2.81 -1.17,-5.87 5.03,-1.34 4.05,-4.89 1.17,-7.63 -2.83,0.23 -2.7,1.16 -5.28,1.76 -5.54,-4.06 -1.76,-3.96 -1.76,-9.39 -1.97,-0.53 -2.4,-1.76 -4.11,-1.76 -2.48,0 -2.06,2.47 -3.54,3.47 -1.27,0.86 -2.94,-0.34 -5.26,-0.53 0,-6.19 -0.47,-5.87 -4.69,-5.87 -2.86,0 -1.76,2.15 -2.51,4.53 -0.8,2.56 -2.71,1.35 -5.12,2.51z"/>
    <path class="fil0" d="M96.79 8.21c0,3.53 -0.16,3.45 2.93,3.52 0,-3.53 -0.26,-8.8 4.69,-8.8l38.13 0c2.84,0 4.69,1.86 4.69,4.69l0 92.09c0,3.75 -1.64,5.87 -5.28,5.87l-36.96 0c-5.89,0 -5.28,-6.57 -5.28,-11.15l-2.93 0c0,7.95 -1.18,14.08 9.97,14.08 0.34,4.14 5.52,4.14 5.87,0l21.7 0c0.33,4 5.77,4.38 5.87,0 4.34,0 9.97,-0.98 9.97,-7.04l0 -93.85c0,-4.59 -3.03,-7.63 -7.63,-7.63l-38.71 0c-4.18,0 -7.04,3.81 -7.04,8.21z"/>
    <path class="fil0" d="M42.82 103.82c-2.01,1.06 -3.73,1.84 -5.75,3.04 -2.87,1.71 -4.14,0.92 -4.22,4.58l48.1 0c-0.07,-3.06 0.5,-1.62 -1.15,-2.96l-8.83 -4.67c0,-5.22 1.04,-9.97 -1.76,-9.97l-24.64 0c-2.8,0 -1.76,4.75 -1.76,9.97z"/>
    <path class="fil0" d="M55.14 51.03c-1.07,3.99 -5.5,3.74 -8.8,9.97 4.97,7.42 6.47,0.98 10.56,-1.76l0.59 -0.59 0.59 -0.59 0.59 -0.59 0.59 -0.59 0.59 -0.59c1.35,-5.81 4.24,-5.78 5.87,-6.45 0.83,1.73 0.66,1.88 1.76,3.52 2.03,-0.54 3.56,-2.07 4.11,-4.11 -1.36,-2.04 -1.86,-1.17 -3.41,-3.04 -1.24,-1.51 -1.12,-2.16 -2.93,-3.52 -2.14,-1.61 -7.74,-4.29 -8.91,0.11 2.15,0.05 3.25,0.48 4.69,1.17 0,3.47 0.34,2.91 -1.55,4.9 -1.48,1.55 -1.58,2.08 -4.31,2.14z"/>
    <path class="fil0" d="M55.14 51.03c-0.65,-1.79 -1.19,-0.66 -2.03,-2.67 -1.04,-2.5 1.39,-7.89 -7.36,-7.89 0.3,3.65 3.57,3 2.08,5.59 -1.55,2.7 -3.12,-0.83 -5.6,-1.49 -1.26,2.63 -0.17,5 1.95,6.26 3.52,2.1 5.7,-1.2 6.85,3.12 2.28,-0.61 2.19,-1.65 4.11,-2.93z"/>
    <path class="fil0" d="M61 60.42c1.92,-0.89 2.13,-0.82 2.35,1.76 -3.43,-0.29 -1.31,0.2 -2.35,-1.76zm-1.17 -4.11l-0.59 0.59 -0.59 0.59 -0.59 0.59 -0.59 0.59 -0.59 0.59c4.16,6.22 4.25,6.57 8.8,3.52l0 -3.52c-1.35,-0.71 -1.73,-0.9 -2.94,-1.8 -1.84,-1.36 -1.3,-1.81 -2.92,-1.14z"/>
   </g>
  </g>
 </g>
</svg>
